<svg width="397" height="20" viewBox="0 0 397 20" fill="none" xmlns="http://www.w3.org/2000/svg">
<path d="M332.325 5.1282H341.214V6.83761H337.795V16.0684H335.744V6.83761H332.325V5.1282ZM340.701 8.03419H342.41V9.57265C342.41 9.40171 342.581 9.23077 342.752 8.88889C342.923 8.54701 343.094 8.54701 343.265 8.37607C343.436 8.20513 343.778 8.03419 343.949 8.03419C344.12 7.86325 344.462 7.86325 344.803 7.86325C344.974 7.86325 345.145 7.86325 345.145 7.86325H345.316V9.57265C345.145 9.57265 345.145 9.57265 344.974 9.57265C344.803 9.57265 344.803 9.57265 344.633 9.57265C344.291 9.57265 344.12 9.57265 343.778 9.74359C343.436 9.91453 343.265 10.0855 343.094 10.2564C342.923 10.4274 342.752 10.7692 342.581 11.1111C342.41 11.453 342.41 11.7949 342.41 12.3077V16.0684H340.701V8.03419ZM353.35 16.0684H351.641V15.0427C351.47 15.3846 351.128 15.7265 350.615 16.0684C350.274 16.2393 349.761 16.4103 349.248 16.4103C348.222 16.4103 347.539 16.2393 347.026 15.5556C346.513 14.8718 346.342 14.188 346.342 13.1624V8.20513H348.051V12.9915C348.051 13.6752 348.222 14.188 348.393 14.5299C348.735 14.8718 349.077 15.0427 349.59 15.0427C349.932 15.0427 350.274 15.0427 350.444 14.8718C350.615 14.7009 350.957 14.5299 350.957 14.359C351.128 14.188 351.299 14.0171 351.299 13.6752C351.299 13.3333 351.47 13.1624 351.47 12.8205V8.20513H353.18V16.0684H353.35ZM356.256 13.5043C356.256 14.0171 356.427 14.359 356.769 14.5299C357.111 14.7009 357.453 14.8718 357.966 14.8718C358.137 14.8718 358.308 14.8718 358.479 14.8718C358.65 14.8718 358.821 14.8718 358.991 14.7009C359.162 14.7009 359.333 14.5299 359.504 14.359C359.675 14.188 359.675 14.0171 359.675 13.8462C359.675 13.6752 359.504 13.5043 359.504 13.3333C359.333 13.1624 359.162 13.1624 358.991 12.9915C358.821 12.9915 358.479 12.8205 358.137 12.8205C357.795 12.8205 357.453 12.6496 357.282 12.6496C356.94 12.6496 356.598 12.4786 356.427 12.3077C356.256 12.1367 355.915 12.1368 355.573 11.9658C355.402 11.7949 355.06 11.6239 355.06 11.2821C354.889 10.9402 354.889 10.5983 354.889 10.2564C354.889 9.74359 355.06 9.40171 355.231 9.23077C355.402 9.05983 355.744 8.71795 356.086 8.54701C356.427 8.37607 356.769 8.20513 357.111 8.20513C357.453 8.20513 357.966 8.03419 358.308 8.03419C358.65 8.03419 359.162 8.03419 359.504 8.20513C359.846 8.20513 360.188 8.37607 360.53 8.54701C360.872 8.71795 361.043 9.05983 361.214 9.23077C361.385 9.57265 361.556 9.91453 361.556 10.4274H359.675C359.675 10.0855 359.333 9.74359 359.162 9.57265C358.65 9.40171 358.308 9.23077 357.966 9.23077C357.795 9.23077 357.624 9.23077 357.453 9.23077C357.282 9.23077 357.111 9.23077 356.94 9.40171C356.769 9.40171 356.598 9.57265 356.598 9.57265C356.427 9.74359 356.427 9.74359 356.427 9.91453C356.427 10.0855 356.427 10.2564 356.598 10.4274C356.769 10.5983 356.94 10.5983 357.111 10.7692C357.282 10.7692 357.624 10.9402 357.966 10.9402C358.308 10.9402 358.65 11.1111 358.991 11.1111C359.333 11.1111 359.675 11.282 359.846 11.453C360.188 11.6239 360.359 11.6239 360.701 11.7949C361.043 11.9658 361.214 12.1368 361.214 12.4786C361.385 12.8205 361.385 12.9915 361.385 13.5043C361.385 14.0171 361.214 14.359 361.043 14.7009C360.872 15.0427 360.53 15.2137 360.188 15.5556C360.017 15.8974 359.675 16.0684 359.333 16.0684C358.991 16.0684 358.479 16.2393 358.137 16.2393C357.624 16.2393 357.111 16.2393 356.769 16.0684C356.427 15.8974 355.915 15.7265 355.744 15.5556C355.402 15.3846 355.231 15.0427 355.06 14.7009C354.718 14.359 354.547 14.0171 354.547 13.5043H356.256ZM362.068 8.03419H363.436V5.81196H365.145V8.20513H366.684V9.57265H365.145V13.8462C365.145 14.0171 365.145 14.188 365.145 14.359C365.145 14.5299 365.145 14.5299 365.316 14.7009C365.487 14.8718 365.487 14.8718 365.487 14.8718C365.658 14.8718 365.829 14.8718 366 14.8718C366.171 14.8718 366.171 14.8718 366.342 14.8718C366.513 14.8718 366.513 14.8718 366.684 14.8718V16.0684C366.513 16.0684 366.342 16.0684 366.171 16.0684C366 16.0684 365.829 16.0684 365.658 16.0684C365.145 16.0684 364.803 16.0684 364.633 15.8974C364.291 15.8974 364.12 15.7265 363.949 15.5556C363.778 15.3846 363.607 15.2137 363.607 14.8718C363.607 14.7009 363.436 14.359 363.436 14.0171V9.40171H362.068V8.03419ZM367.88 8.03419H369.59V9.23077C369.761 8.71795 370.103 8.37607 370.615 8.20513C371.128 8.03419 371.47 7.86325 371.983 7.86325C372.667 7.86325 373.18 8.03419 373.692 8.20513C374.205 8.37607 374.547 8.71795 374.889 9.05983C375.231 9.40171 375.402 9.91453 375.573 10.4274C375.744 10.9402 375.744 11.453 375.744 12.1368C375.744 12.6496 375.744 13.1624 375.573 13.6752C375.402 14.188 375.231 14.5299 374.889 15.0427C374.547 15.3846 374.205 15.7265 373.863 15.8974C373.35 16.0684 373.009 16.2393 372.325 16.2393C372.154 16.2393 371.812 16.2393 371.641 16.2393C371.47 16.2393 371.128 16.0684 370.957 16.0684C370.786 15.8974 370.444 15.8974 370.274 15.7265C370.103 15.5556 369.932 15.3846 369.761 15.2137V19.1453H368.051V8.03419H367.88ZM374.034 12.1368C374.034 11.7949 374.034 11.453 373.863 11.1111C373.692 10.7692 373.692 10.4274 373.521 10.2564C373.35 10.0855 373.18 9.74359 372.838 9.57265C372.496 9.40171 372.325 9.40171 371.812 9.40171C371.128 9.40171 370.444 9.57265 370.103 10.0855C369.761 10.5983 369.59 11.2821 369.59 12.1368C369.59 12.4786 369.59 12.9915 369.761 13.1624C369.932 13.5043 369.932 13.8462 370.274 14.0171C370.444 14.188 370.615 14.5299 370.957 14.5299C371.299 14.7009 371.47 14.7009 371.812 14.7009C372.154 14.7009 372.496 14.7009 372.838 14.5299C373.18 14.359 373.35 14.188 373.521 13.8462C373.692 13.5043 373.863 13.3333 373.863 12.9915C373.863 12.8205 374.034 12.4786 374.034 12.1368ZM377.111 5.1282H378.821V6.83761H377.111V5.1282ZM377.111 8.03419H378.821V16.0684H377.111V8.03419ZM380.359 5.1282H382.068V16.0684H380.359V5.1282ZM387.368 16.2393C386.684 16.2393 386.171 16.0684 385.658 15.8974C385.145 15.7265 384.803 15.3846 384.462 15.0427C384.12 14.7009 383.778 14.188 383.607 13.6752C383.436 13.1624 383.265 12.6496 383.265 11.9658C383.265 11.2821 383.436 10.7692 383.607 10.2564C383.778 9.74359 384.12 9.23077 384.462 8.88889C384.803 8.54701 385.145 8.20513 385.658 8.03419C386.171 7.86325 386.684 7.69231 387.368 7.69231C388.051 7.69231 388.564 7.86325 389.077 8.03419C389.59 8.20513 389.932 8.54701 390.274 8.88889C390.615 9.23077 390.957 9.74359 391.128 10.2564C391.299 10.7692 391.47 11.2821 391.47 11.9658C391.47 12.6496 391.299 13.1624 391.128 13.6752C390.957 14.188 390.615 14.7009 390.274 15.0427C389.932 15.3846 389.59 15.7265 389.077 15.8974C388.564 16.0684 388.051 16.2393 387.368 16.2393ZM387.368 14.8718C387.709 14.8718 388.051 14.8718 388.393 14.7009C388.735 14.5299 388.906 14.359 389.077 14.0171C389.248 13.6752 389.419 13.5043 389.419 13.1624C389.419 12.8205 389.59 12.4786 389.59 12.1368C389.59 11.7949 389.59 11.453 389.419 11.1111C389.419 10.7692 389.248 10.4274 389.077 10.2564C388.906 10.0855 388.735 9.74359 388.393 9.57265C388.051 9.40171 387.709 9.40171 387.368 9.40171C387.026 9.40171 386.684 9.40171 386.342 9.57265C386 9.74359 385.829 9.91453 385.658 10.2564C385.487 10.5983 385.316 10.7692 385.316 11.1111C385.316 11.453 385.145 11.7949 385.145 12.1368C385.145 12.4786 385.145 12.8205 385.316 13.1624C385.316 13.5043 385.487 13.8462 385.658 14.0171C385.829 14.359 386 14.5299 386.342 14.7009C386.684 14.7009 387.026 14.8718 387.368 14.8718ZM391.983 8.03419H393.35V5.81196H395.06V8.20513H396.598V9.57265H395.06V13.8462C395.06 14.0171 395.06 14.188 395.06 14.359C395.06 14.5299 395.06 14.5299 395.231 14.7009C395.402 14.8718 395.402 14.8718 395.402 14.8718C395.573 14.8718 395.744 14.8718 395.915 14.8718C396.086 14.8718 396.086 14.8718 396.256 14.8718C396.427 14.8718 396.427 14.8718 396.598 14.8718V16.0684C396.427 16.0684 396.256 16.0684 396.086 16.0684C395.915 16.0684 395.744 16.0684 395.573 16.0684C395.06 16.0684 394.718 16.0684 394.547 15.8974C394.205 15.8974 394.034 15.7265 393.863 15.5556C393.692 15.3846 393.521 15.2137 393.521 14.8718C393.521 14.7009 393.35 14.359 393.35 14.0171V9.40171H391.983V8.03419Z" fill="white"/>
<path d="M326.855 7.69231H318.821L316.427 0L313.863 7.69231H306L312.325 12.3077L309.932 20L316.427 15.2137L322.752 20L320.359 12.3077L326.855 7.69231Z" fill="#FF65FF"/>
<path d="M320.872 14.0171L320.359 12.3077L316.427 15.2137L320.872 14.0171Z" fill="#7D0E7D"/>
<path d="M186.953 0H167V20H186.953V0Z" fill="#FF65FF"/>
<path d="M208.361 0H188.408V20H208.361V0Z" fill="#FF65FF"/>
<path d="M229.976 0H210.023V20H229.976V0Z" fill="#FF65FF"/>
<path d="M251.384 0H231.431V20H251.384V0Z" fill="#FF65FF"/>
<path d="M273 0H253.047V20H273V0Z" fill="#FFCDFF" fill-opacity="0.2"/>
<path d="M253.047 0H263.024V19.7917H253.047V0Z" fill="#FF65FF"/>
<path d="M176.769 13.3333L179.886 12.4999L181.133 16.4583L176.769 13.3333ZM183.835 8.33328H178.431L176.769 3.33328L175.106 8.33328H169.91L174.275 11.4583L172.612 16.4583L176.977 13.3333L179.679 11.4583L183.835 8.33328Z" fill="white"/>
<path d="M198.384 13.3333L201.502 12.4999L202.749 16.4583L198.384 13.3333ZM205.243 8.33328H199.839L198.176 3.33328L196.514 8.33328H191.11L195.474 11.4583L193.812 16.4583L198.176 13.3333L200.878 11.4583L205.243 8.33328Z" fill="white"/>
<path d="M220 13.3333L223.118 12.4999L224.365 16.4583L220 13.3333ZM226.859 8.33328H221.455L219.792 3.33328L218.13 8.33328H212.726L217.09 11.4583L215.635 16.4583L220 13.3333L222.702 11.4583L226.859 8.33328Z" fill="white"/>
<path d="M241.408 13.3333L244.526 12.4999L245.773 16.4583L241.408 13.3333ZM248.475 8.33328H243.071L241.408 3.33328L239.745 8.33328H234.341L238.706 11.4583L237.043 16.4583L241.408 13.3333L244.11 11.4583L248.475 8.33328Z" fill="white"/>
<path d="M263.024 13.3333L266.141 12.4999L267.388 16.4583L263.024 13.3333ZM269.883 8.33328H264.479L262.816 3.33328L261.361 8.33328H255.957L260.322 11.4583L258.659 16.4583L263.024 13.3333L265.726 11.4583L269.883 8.33328Z" fill="white"/>
<path d="M3.08239 16L0.298295 5.81818H1.55114L3.67898 14.1108H3.77841L5.94602 5.81818H7.33807L9.50568 14.1108H9.60511L11.733 5.81818H12.9858L10.2017 16H8.92898L6.68182 7.88636H6.60227L4.35511 16H3.08239ZM16.8537 16.1591C16.1179 16.1591 15.4832 15.9967 14.9496 15.6719C14.4193 15.3438 14.0099 14.8864 13.7216 14.2997C13.4366 13.7098 13.294 13.0237 13.294 12.2415C13.294 11.4593 13.4366 10.7699 13.7216 10.1733C14.0099 9.57339 14.411 9.10606 14.9247 8.77131C15.4418 8.43324 16.045 8.2642 16.7344 8.2642C17.1321 8.2642 17.5249 8.33049 17.9126 8.46307C18.3004 8.59564 18.6534 8.81108 18.9716 9.10938C19.2898 9.40436 19.5433 9.79545 19.7322 10.2827C19.9212 10.7699 20.0156 11.3698 20.0156 12.0824V12.5795H14.1293V11.5653H18.8224C18.8224 11.1345 18.7363 10.75 18.5639 10.4119C18.3949 10.0739 18.1529 9.80705 17.8381 9.61151C17.5265 9.41596 17.1586 9.31818 16.7344 9.31818C16.267 9.31818 15.8627 9.43419 15.5213 9.66619C15.1832 9.89489 14.9231 10.1932 14.7408 10.5611C14.5585 10.929 14.4673 11.3234 14.4673 11.7443V12.4205C14.4673 12.9972 14.5668 13.486 14.7656 13.8871C14.9678 14.2848 15.2479 14.5881 15.6058 14.7969C15.9638 15.0024 16.3797 15.1051 16.8537 15.1051C17.1619 15.1051 17.4403 15.062 17.6889 14.9759C17.9408 14.8864 18.1579 14.7538 18.3402 14.5781C18.5225 14.3991 18.6634 14.1771 18.7628 13.9119L19.8963 14.2301C19.777 14.6146 19.5765 14.9527 19.2947 15.2443C19.013 15.5327 18.665 15.758 18.2507 15.9205C17.8364 16.0795 17.3707 16.1591 16.8537 16.1591ZM27.9851 16.179C27.5012 16.179 27.062 16.0878 26.6676 15.9055C26.2732 15.7199 25.96 15.4531 25.728 15.1051C25.496 14.7538 25.38 14.3295 25.38 13.8324C25.38 13.3949 25.4661 13.0402 25.6385 12.7685C25.8108 12.4934 26.0412 12.2779 26.3295 12.1222C26.6179 11.9664 26.9361 11.8504 27.2841 11.7741C27.6354 11.6946 27.9884 11.6316 28.343 11.5852C28.8071 11.5256 29.1832 11.4808 29.4716 11.451C29.7633 11.4179 29.9754 11.3632 30.108 11.2869C30.2438 11.2107 30.3118 11.0781 30.3118 10.8892V10.8494C30.3118 10.3589 30.1776 9.97775 29.9091 9.70597C29.6439 9.43419 29.2412 9.2983 28.701 9.2983C28.1409 9.2983 27.7017 9.42093 27.3835 9.66619C27.0653 9.91146 26.8416 10.1733 26.7124 10.4517L25.5987 10.054C25.7976 9.58996 26.0627 9.22869 26.3942 8.97017C26.7289 8.70833 27.0935 8.52604 27.4879 8.4233C27.8857 8.31723 28.2768 8.2642 28.6612 8.2642C28.9065 8.2642 29.1882 8.29403 29.5064 8.35369C29.8279 8.41004 30.1378 8.5277 30.4361 8.70668C30.7377 8.88565 30.9879 9.15578 31.1868 9.51705C31.3857 9.87831 31.4851 10.3622 31.4851 10.9688V16H30.3118V14.9659H30.2521C30.1726 15.1316 30.04 15.3089 29.8544 15.4979C29.6688 15.6868 29.4219 15.8475 29.1136 15.9801C28.8054 16.1127 28.4292 16.179 27.9851 16.179ZM28.1641 15.125C28.6281 15.125 29.0192 15.0339 29.3374 14.8516C29.6589 14.6693 29.9008 14.4339 30.0632 14.1456C30.2289 13.8572 30.3118 13.554 30.3118 13.2358V12.1619C30.2621 12.2216 30.1527 12.2763 29.9837 12.326C29.8179 12.3724 29.6257 12.4138 29.407 12.4503C29.1915 12.4834 28.9811 12.5133 28.7756 12.5398C28.5734 12.563 28.4093 12.5829 28.2834 12.5994C27.9785 12.6392 27.6934 12.7038 27.4283 12.7933C27.1664 12.8795 26.9543 13.0104 26.7919 13.1861C26.6328 13.3584 26.5533 13.5937 26.5533 13.892C26.5533 14.2997 26.7041 14.608 27.0057 14.8168C27.3106 15.0223 27.6967 15.125 28.1641 15.125ZM33.6266 16V8.36364H34.7601V9.51705H34.8397C34.9789 9.1392 35.2308 8.83262 35.5953 8.5973C35.9599 8.36198 36.3709 8.24432 36.8283 8.24432C36.9145 8.24432 37.0222 8.24597 37.1515 8.24929C37.2807 8.2526 37.3785 8.25758 37.4448 8.2642V9.45739C37.405 9.44744 37.3139 9.43253 37.1713 9.41264C37.0321 9.38944 36.8846 9.37784 36.7289 9.37784C36.3577 9.37784 36.0262 9.45573 35.7346 9.61151C35.4462 9.76397 35.2175 9.97609 35.0485 10.2479C34.8828 10.5163 34.7999 10.8229 34.7999 11.1676V16H33.6266ZM41.8049 16.1591C41.0691 16.1591 40.4344 15.9967 39.9007 15.6719C39.3704 15.3438 38.9611 14.8864 38.6728 14.2997C38.3877 13.7098 38.2452 13.0237 38.2452 12.2415C38.2452 11.4593 38.3877 10.7699 38.6728 10.1733C38.9611 9.57339 39.3622 9.10606 39.8759 8.77131C40.3929 8.43324 40.9962 8.2642 41.6855 8.2642C42.0833 8.2642 42.476 8.33049 42.8638 8.46307C43.2516 8.59564 43.6046 8.81108 43.9228 9.10938C44.2409 9.40436 44.4945 9.79545 44.6834 10.2827C44.8723 10.7699 44.9668 11.3698 44.9668 12.0824V12.5795H39.0804V11.5653H43.7736C43.7736 11.1345 43.6874 10.75 43.5151 10.4119C43.3461 10.0739 43.1041 9.80705 42.7892 9.61151C42.4777 9.41596 42.1098 9.31818 41.6855 9.31818C41.2182 9.31818 40.8139 9.43419 40.4725 9.66619C40.1344 9.89489 39.8742 10.1932 39.6919 10.5611C39.5096 10.929 39.4185 11.3234 39.4185 11.7443V12.4205C39.4185 12.9972 39.5179 13.486 39.7168 13.8871C39.919 14.2848 40.199 14.5881 40.557 14.7969C40.915 15.0024 41.3309 15.1051 41.8049 15.1051C42.1131 15.1051 42.3915 15.062 42.6401 14.9759C42.892 14.8864 43.1091 14.7538 43.2914 14.5781C43.4737 14.3991 43.6145 14.1771 43.714 13.9119L44.8475 14.2301C44.7282 14.6146 44.5276 14.9527 44.2459 15.2443C43.9642 15.5327 43.6162 15.758 43.2019 15.9205C42.7876 16.0795 42.3219 16.1591 41.8049 16.1591ZM50.6891 16V8.36364H51.8226V9.51705H51.9022C52.0414 9.1392 52.2933 8.83262 52.6578 8.5973C53.0224 8.36198 53.4334 8.24432 53.8908 8.24432C53.977 8.24432 54.0847 8.24597 54.214 8.24929C54.3432 8.2526 54.441 8.25758 54.5073 8.2642V9.45739C54.4675 9.44744 54.3764 9.43253 54.2338 9.41264C54.0946 9.38944 53.9471 9.37784 53.7914 9.37784C53.4202 9.37784 53.0887 9.45573 52.7971 9.61151C52.5087 9.76397 52.28 9.97609 52.111 10.2479C51.9453 10.5163 51.8624 10.8229 51.8624 11.1676V16H50.6891ZM58.1452 16.179C57.6613 16.179 57.2222 16.0878 56.8278 15.9055C56.4334 15.7199 56.1201 15.4531 55.8881 15.1051C55.6561 14.7538 55.5401 14.3295 55.5401 13.8324C55.5401 13.3949 55.6263 13.0402 55.7987 12.7685C55.971 12.4934 56.2013 12.2779 56.4897 12.1222C56.7781 11.9664 57.0962 11.8504 57.4442 11.7741C57.7956 11.6946 58.1486 11.6316 58.5032 11.5852C58.9672 11.5256 59.3434 11.4808 59.6317 11.451C59.9234 11.4179 60.1355 11.3632 60.2681 11.2869C60.404 11.2107 60.4719 11.0781 60.4719 10.8892V10.8494C60.4719 10.3589 60.3377 9.97775 60.0692 9.70597C59.8041 9.43419 59.4014 9.2983 58.8612 9.2983C58.301 9.2983 57.8619 9.42093 57.5437 9.66619C57.2255 9.91146 57.0018 10.1733 56.8725 10.4517L55.7589 10.054C55.9577 9.58996 56.2229 9.22869 56.5543 8.97017C56.8891 8.70833 57.2537 8.52604 57.6481 8.4233C58.0458 8.31723 58.4369 8.2642 58.8214 8.2642C59.0666 8.2642 59.3484 8.29403 59.6665 8.35369C59.988 8.41004 60.2979 8.5277 60.5962 8.70668C60.8978 8.88565 61.1481 9.15578 61.3469 9.51705C61.5458 9.87831 61.6452 10.3622 61.6452 10.9688V16H60.4719V14.9659H60.4123C60.3327 15.1316 60.2002 15.3089 60.0146 15.4979C59.829 15.6868 59.582 15.8475 59.2738 15.9801C58.9656 16.1127 58.5894 16.179 58.1452 16.179ZM58.3242 15.125C58.7882 15.125 59.1793 15.0339 59.4975 14.8516C59.819 14.6693 60.061 14.4339 60.2234 14.1456C60.3891 13.8572 60.4719 13.554 60.4719 13.2358V12.1619C60.4222 12.2216 60.3129 12.2763 60.1438 12.326C59.9781 12.3724 59.7859 12.4138 59.5671 12.4503C59.3517 12.4834 59.1412 12.5133 58.9357 12.5398C58.7335 12.563 58.5695 12.5829 58.4435 12.5994C58.1386 12.6392 57.8536 12.7038 57.5884 12.7933C57.3266 12.8795 57.1145 13.0104 56.9521 13.1861C56.793 13.3584 56.7134 13.5937 56.7134 13.892C56.7134 14.2997 56.8642 14.608 57.1658 14.8168C57.4708 15.0223 57.8569 15.125 58.3242 15.125ZM67.1078 8.36364V9.35795H63.1504V8.36364H67.1078ZM64.3038 6.53409H65.4771V13.8125C65.4771 14.1439 65.5252 14.3925 65.6213 14.5582C65.7207 14.7206 65.8467 14.83 65.9991 14.8864C66.1549 14.9394 66.319 14.9659 66.4913 14.9659C66.6206 14.9659 66.7266 14.9593 66.8095 14.946C66.8923 14.9295 66.9586 14.9162 67.0083 14.9062L67.247 15.9602C67.1674 15.9901 67.0564 16.0199 66.9139 16.0497C66.7714 16.0829 66.5907 16.0994 66.372 16.0994C66.0405 16.0994 65.7157 16.0282 65.3975 15.8857C65.0827 15.7431 64.8208 15.526 64.612 15.2344C64.4065 14.9427 64.3038 14.5748 64.3038 14.1307V6.53409ZM71.9924 16.1591C71.2566 16.1591 70.6219 15.9967 70.0882 15.6719C69.5579 15.3438 69.1486 14.8864 68.8603 14.2997C68.5752 13.7098 68.4327 13.0237 68.4327 12.2415C68.4327 11.4593 68.5752 10.7699 68.8603 10.1733C69.1486 9.57339 69.5497 9.10606 70.0634 8.77131C70.5804 8.43324 71.1837 8.2642 71.873 8.2642C72.2708 8.2642 72.6635 8.33049 73.0513 8.46307C73.4391 8.59564 73.7921 8.81108 74.1103 9.10938C74.4284 9.40436 74.682 9.79545 74.8709 10.2827C75.0598 10.7699 75.1543 11.3698 75.1543 12.0824V12.5795H69.2679V11.5653H73.9611C73.9611 11.1345 73.8749 10.75 73.7026 10.4119C73.5336 10.0739 73.2916 9.80705 72.9767 9.61151C72.6652 9.41596 72.2973 9.31818 71.873 9.31818C71.4057 9.31818 71.0014 9.43419 70.66 9.66619C70.3219 9.89489 70.0617 10.1932 69.8794 10.5611C69.6971 10.929 69.606 11.3234 69.606 11.7443V12.4205C69.606 12.9972 69.7054 13.486 69.9043 13.8871C70.1065 14.2848 70.3865 14.5881 70.7445 14.7969C71.1025 15.0024 71.5184 15.1051 71.9924 15.1051C72.3006 15.1051 72.579 15.062 72.8276 14.9759C73.0795 14.8864 73.2966 14.7538 73.4789 14.5781C73.6612 14.3991 73.802 14.1771 73.9015 13.9119L75.035 14.2301C74.9157 14.6146 74.7151 14.9527 74.4334 15.2443C74.1517 15.5327 73.8037 15.758 73.3894 15.9205C72.9751 16.0795 72.5094 16.1591 71.9924 16.1591ZM79.8226 16.1591C79.1863 16.1591 78.6245 15.9983 78.1373 15.6768C77.65 15.352 77.2689 14.8946 76.9938 14.3047C76.7187 13.7114 76.5811 13.0104 76.5811 12.2017C76.5811 11.3996 76.7187 10.7036 76.9938 10.1136C77.2689 9.52367 77.6517 9.06794 78.1422 8.74645C78.6328 8.42495 79.1995 8.2642 79.8425 8.2642C80.3397 8.2642 80.7324 8.34706 81.0208 8.51278C81.3124 8.67519 81.5345 8.8608 81.687 9.0696C81.8427 9.27509 81.9637 9.44413 82.0499 9.5767H82.1493V5.81818H83.3226V16H82.1891V14.8267H82.0499C81.9637 14.9659 81.8411 15.1416 81.682 15.3537C81.5229 15.5625 81.2959 15.7498 81.0009 15.9155C80.7059 16.0779 80.3132 16.1591 79.8226 16.1591ZM79.9817 15.1051C80.4524 15.1051 80.8501 14.9825 81.1749 14.7372C81.4997 14.4886 81.7466 14.1456 81.9157 13.7081C82.0847 13.2673 82.1692 12.7585 82.1692 12.1818C82.1692 11.6117 82.0864 11.1129 81.9206 10.6854C81.7549 10.2545 81.5096 9.91974 81.1848 9.68111C80.86 9.43916 80.459 9.31818 79.9817 9.31818C79.4846 9.31818 79.0703 9.44579 78.7388 9.70099C78.4107 9.95289 78.1638 10.2959 77.998 10.7301C77.8356 11.161 77.7544 11.6449 77.7544 12.1818C77.7544 12.7254 77.8373 13.2192 78.003 13.6634C78.1721 14.1042 78.4206 14.4555 78.7488 14.7173C79.0802 14.9759 79.4912 15.1051 79.9817 15.1051Z" fill="#D2C7E5"/>
<path d="M93.4185 16.1705C92.5435 16.1705 91.7878 15.9886 91.1515 15.625C90.5189 15.2576 90.0321 14.7386 89.6912 14.0682C89.3503 13.3939 89.1799 12.6004 89.1799 11.6875C89.1799 10.7898 89.3503 10.0019 89.6912 9.32386C90.0359 8.64205 90.517 8.11174 91.1344 7.73295C91.7518 7.35038 92.4772 7.15909 93.3105 7.15909C93.8484 7.15909 94.356 7.24621 94.8333 7.42045C95.3143 7.59091 95.7386 7.85606 96.106 8.21591C96.4772 8.57576 96.7689 9.03409 96.981 9.59091C97.1931 10.1439 97.2992 10.803 97.2992 11.5682V12.1989H90.1458V10.8125H95.3276C95.3238 10.4186 95.2386 10.0682 95.0719 9.76136C94.9052 9.45076 94.6723 9.20644 94.373 9.02841C94.0776 8.85038 93.7329 8.76136 93.339 8.76136C92.9185 8.76136 92.5492 8.86364 92.231 9.06818C91.9128 9.26894 91.6647 9.53409 91.4867 9.86364C91.3124 10.1894 91.2234 10.5473 91.2196 10.9375V12.1477C91.2196 12.6553 91.3124 13.0909 91.498 13.4545C91.6837 13.8144 91.9431 14.0909 92.2765 14.2841C92.6098 14.4735 92.9999 14.5682 93.4469 14.5682C93.7462 14.5682 94.017 14.5265 94.2594 14.4432C94.5018 14.3561 94.7121 14.2292 94.8901 14.0625C95.0681 13.8958 95.2026 13.6894 95.2935 13.4432L97.214 13.6591C97.0927 14.1667 96.8617 14.6098 96.5208 14.9886C96.1837 15.3636 95.7518 15.6553 95.2253 15.8636C94.6988 16.0682 94.0965 16.1705 93.4185 16.1705ZM100.534 7.27273L102.295 10.4943L104.085 7.27273H106.261L103.63 11.6364L106.306 16H104.142L102.295 12.858L100.465 16H98.2836L100.943 11.6364L98.3517 7.27273H100.534ZM111.33 16.1705C110.459 16.1705 109.711 15.9792 109.086 15.5966C108.465 15.214 107.986 14.6856 107.649 14.0114C107.315 13.3333 107.149 12.553 107.149 11.6705C107.149 10.7841 107.319 10.0019 107.66 9.32386C108.001 8.64205 108.482 8.11174 109.103 7.73295C109.728 7.35038 110.467 7.15909 111.319 7.15909C112.027 7.15909 112.654 7.28977 113.2 7.55114C113.749 7.80871 114.186 8.17424 114.512 8.64773C114.838 9.11742 115.024 9.66667 115.069 10.2955H113.103C113.024 9.875 112.834 9.52462 112.535 9.24432C112.24 8.96023 111.844 8.81818 111.347 8.81818C110.927 8.81818 110.558 8.93182 110.24 9.15909C109.921 9.38258 109.673 9.70455 109.495 10.125C109.321 10.5455 109.234 11.0492 109.234 11.6364C109.234 12.2311 109.321 12.7424 109.495 13.1705C109.669 13.5947 109.914 13.9223 110.228 14.1534C110.546 14.3807 110.919 14.4943 111.347 14.4943C111.651 14.4943 111.921 14.4375 112.16 14.3239C112.402 14.2064 112.605 14.0379 112.768 13.8182C112.931 13.5985 113.043 13.3314 113.103 13.017H115.069C115.02 13.6345 114.838 14.1818 114.524 14.6591C114.209 15.1326 113.781 15.5038 113.24 15.7727C112.698 16.0379 112.061 16.1705 111.33 16.1705ZM120.622 16.1705C119.747 16.1705 118.991 15.9886 118.355 15.625C117.722 15.2576 117.235 14.7386 116.894 14.0682C116.553 13.3939 116.383 12.6004 116.383 11.6875C116.383 10.7898 116.553 10.0019 116.894 9.32386C117.239 8.64205 117.72 8.11174 118.338 7.73295C118.955 7.35038 119.68 7.15909 120.514 7.15909C121.052 7.15909 121.559 7.24621 122.036 7.42045C122.517 7.59091 122.942 7.85606 123.309 8.21591C123.68 8.57576 123.972 9.03409 124.184 9.59091C124.396 10.1439 124.502 10.803 124.502 11.5682V12.1989H117.349V10.8125H122.531C122.527 10.4186 122.442 10.0682 122.275 9.76136C122.108 9.45076 121.875 9.20644 121.576 9.02841C121.281 8.85038 120.936 8.76136 120.542 8.76136C120.122 8.76136 119.752 8.86364 119.434 9.06818C119.116 9.26894 118.868 9.53409 118.69 9.86364C118.516 10.1894 118.427 10.5473 118.423 10.9375V12.1477C118.423 12.6553 118.516 13.0909 118.701 13.4545C118.887 13.8144 119.146 14.0909 119.48 14.2841C119.813 14.4735 120.203 14.5682 120.65 14.5682C120.949 14.5682 121.22 14.5265 121.463 14.4432C121.705 14.3561 121.915 14.2292 122.093 14.0625C122.271 13.8958 122.406 13.6894 122.497 13.4432L124.417 13.6591C124.296 14.1667 124.065 14.6098 123.724 14.9886C123.387 15.3636 122.955 15.6553 122.428 15.8636C121.902 16.0682 121.3 16.1705 120.622 16.1705ZM128.299 4.36364V16H126.242V4.36364H128.299ZM132.471 4.36364V16H130.414V4.36364H132.471ZM138.45 16.1705C137.575 16.1705 136.819 15.9886 136.183 15.625C135.55 15.2576 135.063 14.7386 134.722 14.0682C134.382 13.3939 134.211 12.6004 134.211 11.6875C134.211 10.7898 134.382 10.0019 134.722 9.32386C135.067 8.64205 135.548 8.11174 136.166 7.73295C136.783 7.35038 137.508 7.15909 138.342 7.15909C138.88 7.15909 139.387 7.24621 139.865 7.42045C140.346 7.59091 140.77 7.85606 141.137 8.21591C141.508 8.57576 141.8 9.03409 142.012 9.59091C142.224 10.1439 142.33 10.803 142.33 11.5682V12.1989H135.177V10.8125H140.359C140.355 10.4186 140.27 10.0682 140.103 9.76136C139.936 9.45076 139.704 9.20644 139.404 9.02841C139.109 8.85038 138.764 8.76136 138.37 8.76136C137.95 8.76136 137.58 8.86364 137.262 9.06818C136.944 9.26894 136.696 9.53409 136.518 9.86364C136.344 10.1894 136.255 10.5473 136.251 10.9375V12.1477C136.251 12.6553 136.344 13.0909 136.529 13.4545C136.715 13.8144 136.974 14.0909 137.308 14.2841C137.641 14.4735 138.031 14.5682 138.478 14.5682C138.777 14.5682 139.048 14.5265 139.291 14.4432C139.533 14.3561 139.743 14.2292 139.921 14.0625C140.099 13.8958 140.234 13.6894 140.325 13.4432L142.245 13.6591C142.124 14.1667 141.893 14.6098 141.552 14.9886C141.215 15.3636 140.783 15.6553 140.257 15.8636C139.73 16.0682 139.128 16.1705 138.45 16.1705ZM146.127 10.8864V16H144.07V7.27273H146.036V8.75568H146.139C146.339 8.26705 146.66 7.87879 147.099 7.59091C147.542 7.30303 148.089 7.15909 148.741 7.15909C149.343 7.15909 149.868 7.28788 150.315 7.54545C150.766 7.80303 151.114 8.17614 151.36 8.66477C151.61 9.15341 151.733 9.74621 151.73 10.4432V16H149.673V10.7614C149.673 10.178 149.521 9.72159 149.218 9.39205C148.919 9.0625 148.504 8.89773 147.974 8.89773C147.614 8.89773 147.294 8.97727 147.014 9.13636C146.737 9.29167 146.519 9.51705 146.36 9.8125C146.205 10.108 146.127 10.4659 146.127 10.8864ZM158.178 7.27273V8.86364H153.161V7.27273H158.178ZM154.4 5.18182H156.457V13.375C156.457 13.6515 156.499 13.8636 156.582 14.0114C156.669 14.1553 156.783 14.2538 156.923 14.3068C157.063 14.3598 157.218 14.3864 157.389 14.3864C157.517 14.3864 157.635 14.3769 157.741 14.358C157.851 14.339 157.934 14.322 157.991 14.3068L158.338 15.9148C158.228 15.9527 158.07 15.9943 157.866 16.0398C157.665 16.0852 157.419 16.1117 157.127 16.1193C156.612 16.1345 156.148 16.0568 155.735 15.8864C155.322 15.7121 154.995 15.4432 154.752 15.0795C154.514 14.7159 154.396 14.2614 154.4 13.7159V5.18182Z" fill="white"/>
<path d="M285.176 15.1591C284.487 15.1591 283.882 14.995 283.362 14.6669C282.844 14.3388 282.44 13.8797 282.148 13.2898C281.86 12.6998 281.716 12.0104 281.716 11.2216C281.716 10.4261 281.86 9.73177 282.148 9.13849C282.44 8.54522 282.844 8.08452 283.362 7.75639C283.882 7.42827 284.487 7.2642 285.176 7.2642C285.866 7.2642 286.469 7.42827 286.986 7.75639C287.506 8.08452 287.911 8.54522 288.199 9.13849C288.491 9.73177 288.636 10.4261 288.636 11.2216C288.636 12.0104 288.491 12.6998 288.199 13.2898C287.911 13.8797 287.506 14.3388 286.986 14.6669C286.469 14.995 285.866 15.1591 285.176 15.1591ZM285.176 14.1051C285.7 14.1051 286.131 13.9709 286.469 13.7024C286.807 13.4339 287.057 13.081 287.219 12.6435C287.382 12.206 287.463 11.732 287.463 11.2216C287.463 10.7112 287.382 10.2356 287.219 9.79474C287.057 9.35393 286.807 8.99763 286.469 8.72585C286.131 8.45407 285.7 8.31818 285.176 8.31818C284.652 8.31818 284.222 8.45407 283.884 8.72585C283.545 8.99763 283.295 9.35393 283.133 9.79474C282.97 10.2356 282.889 10.7112 282.889 11.2216C282.889 11.732 282.97 12.206 283.133 12.6435C283.295 13.081 283.545 13.4339 283.884 13.7024C284.222 13.9709 284.652 14.1051 285.176 14.1051ZM291.601 10.4062V15H290.427V7.36364H291.561V8.55682H291.66C291.839 8.16903 292.111 7.85748 292.476 7.62216C292.84 7.38352 293.311 7.2642 293.888 7.2642C294.405 7.2642 294.857 7.37027 295.245 7.58239C295.633 7.79119 295.934 8.10938 296.15 8.53693C296.365 8.96117 296.473 9.49811 296.473 10.1477V15H295.3V10.2273C295.3 9.62737 295.144 9.16004 294.832 8.82528C294.521 8.48722 294.093 8.31818 293.55 8.31818C293.175 8.31818 292.84 8.39938 292.545 8.56179C292.254 8.72419 292.023 8.96117 291.854 9.27273C291.685 9.58428 291.601 9.96212 291.601 10.4062Z" fill="#D2C7E5"/>
</svg>
