<svg version="1.1" id="Layer_1" xmlns="http://www.w3.org/2000/svg" xmlns:xlink="http://www.w3.org/1999/xlink" x="0px" y="0px"
	 width="100%" viewBox="0 0 592 624" enable-background="new 0 0 592 624" xml:space="preserve">
<path fill="#000000" opacity="1.000000" stroke="none" 
	d="
M294.466125,625.000000 
	C292.201447,619.104919 289.694672,613.494934 287.015503,607.965210 
	C286.060425,605.993896 285.317505,604.017273 285.097443,601.831604 
	C284.726196,598.144287 286.283691,595.720947 290.042511,596.042480 
	C299.278107,596.832581 304.615417,592.848755 307.986145,584.233154 
	C310.519073,577.758911 318.456696,575.894958 324.803528,579.021118 
	C330.603729,581.877991 331.311096,584.879089 327.556458,590.259521 
	C320.134644,600.895142 313.206482,611.803101 309.101074,624.642456 
	C304.310760,625.000000 299.621490,625.000000 294.466125,625.000000 
z"/>
<path fill="#000000" opacity="1.000000" stroke="none" 
	d="
M179.303909,277.016541 
	C174.518295,292.373596 173.802322,307.546051 175.108978,323.169220 
	C177.576752,352.675537 189.801971,377.797333 208.493118,399.941010 
	C217.029297,410.053894 226.545578,419.583557 238.650772,425.712433 
	C243.096817,427.963470 244.696320,432.229645 246.881104,436.017517 
	C251.377060,443.812378 257.026031,450.769440 262.195129,458.073914 
	C263.138763,459.407379 264.954010,460.598236 263.748077,462.353638 
	C262.504456,464.163910 260.688721,462.804474 259.193451,462.324860 
	C233.154205,453.972321 212.019608,438.697235 194.358841,417.879242 
	C185.521042,407.461456 178.099625,396.198181 173.302505,383.746948 
	C168.340668,370.868225 164.609940,357.479279 163.382050,343.341278 
	C161.469009,321.314545 164.781693,300.384888 172.608078,279.949280 
	C173.260773,278.245056 173.934082,276.497864 174.929657,274.989655 
	C175.992661,273.379272 176.227600,269.953735 179.160446,271.264740 
	C181.535141,272.326233 179.743073,274.768982 179.303909,277.016541 
z"/>
<path fill="#000000" opacity="1.000000" stroke="none" 
	d="
M410.965515,378.995941 
	C416.610046,369.446381 420.455353,359.567749 423.282135,349.233734 
	C426.103210,338.920654 427.524567,328.442688 428.407501,317.797028 
	C429.292938,307.120911 427.458771,296.549225 427.742645,285.894226 
	C431.301270,284.375061 432.600647,286.000244 433.592834,289.001465 
	C439.613281,307.212585 441.447266,325.745819 439.612762,344.891846 
	C437.158936,370.501343 427.186432,392.932129 412.340759,413.454407 
	C404.915863,423.718445 396.023987,432.740967 385.896027,440.326019 
	C373.343658,449.726837 359.748444,457.382446 344.652344,462.024353 
	C342.934113,462.552704 340.650726,464.438660 339.214447,462.237213 
	C337.825226,460.107910 340.111694,458.656311 341.484375,457.290283 
	C349.167938,449.644226 355.979248,441.269806 361.738831,432.111420 
	C364.829590,427.196869 368.939148,423.585663 373.650391,420.425323 
	C389.453308,409.824707 401.535217,395.844818 410.965515,378.995941 
z"/>
<path fill="#000000" opacity="1.000000" stroke="none" 
	d="
M278.955536,291.047974 
	C275.136566,286.903534 269.355438,285.255920 266.354156,279.276520 
	C272.877625,279.626282 278.317474,279.717682 283.713196,280.253510 
	C292.118988,281.088196 302.599792,272.224518 302.747131,263.740356 
	C302.874237,256.420410 302.771942,249.096542 302.776337,241.774414 
	C302.777618,239.633255 302.394806,237.314926 305.711395,236.172913 
	C309.527740,244.838470 313.892365,253.193741 319.742767,260.892242 
	C325.643646,268.657135 334.071472,273.115662 342.121185,279.286530 
	C336.703369,282.205261 332.261902,284.077606 328.394806,286.773743 
	C313.709259,297.012451 306.420166,311.593781 304.354370,329.084229 
	C304.158417,330.743378 304.869263,333.134766 301.947083,333.082794 
	C299.482391,333.038940 299.981689,330.953247 299.615448,329.408630 
	C296.177612,314.910339 289.621307,302.069611 278.955536,291.047974 
z"/>
<path fill="#000000" opacity="1.000000" stroke="none" 
	d="
M339.235779,220.758240 
	C335.954742,218.924255 332.813843,218.036896 332.518707,213.357880 
	C331.888672,203.370499 337.716034,201.532104 346.168915,204.800934 
	C356.399872,208.757370 364.459808,216.254349 371.498108,224.496429 
	C377.855103,231.940598 383.195038,240.214081 386.299591,249.629791 
	C390.378326,262.000336 392.657440,274.561310 390.647186,287.724579 
	C389.871948,292.800751 389.374054,297.917297 387.946167,302.854156 
	C386.346039,308.386505 382.036346,310.646790 376.308350,309.222565 
	C372.705597,308.326752 370.373505,303.162750 371.991882,298.322693 
	C382.315125,267.449066 363.269012,234.167892 339.235779,220.758240 
z"/>
<path fill="#000000" opacity="1.000000" stroke="none" 
	d="
M121.944641,359.088013 
	C110.020760,351.697693 96.760040,347.970337 84.794518,341.495758 
	C74.373573,335.857025 64.396202,329.663635 57.417252,319.693146 
	C56.564278,318.474518 55.257641,317.385162 56.164017,315.729950 
	C56.949085,314.296265 58.504131,314.732788 59.764641,314.689728 
	C84.496552,313.843903 105.806259,321.580688 122.425888,340.350769 
	C128.480774,347.189117 133.516891,354.810028 135.634766,363.961395 
	C135.962341,365.376892 136.946716,366.931213 135.120422,367.906830 
	C133.680588,368.675964 132.676346,367.478455 131.632706,366.651947 
	C128.515076,364.183075 125.367096,361.752563 121.944641,359.088013 
z"/>
<path fill="#000000" opacity="1.000000" stroke="none" 
	d="
M502.103027,322.913300 
	C518.267639,316.080994 537.324219,312.950256 546.311829,315.759491 
	C544.577332,321.446655 540.247986,325.099976 536.115723,328.718414 
	C524.060059,339.275024 509.682831,345.642761 494.913574,351.389069 
	C486.542297,354.646088 478.515442,358.758972 471.898071,365.104523 
	C470.717682,366.236450 469.391113,367.908478 467.643768,366.714874 
	C466.022797,365.607574 466.771332,363.748505 467.319000,362.141571 
	C470.491058,352.834595 476.065613,345.094818 482.503510,337.768097 
	C487.988159,331.526245 494.798004,327.257141 502.103027,322.913300 
z"/>
<path fill="#000000" opacity="1.000000" stroke="none" 
	d="
M507.975647,381.045258 
	C496.438446,389.571716 483.753906,393.758789 469.831940,394.401062 
	C466.531708,394.553314 463.344299,395.711487 459.961365,395.351624 
	C456.991058,395.035706 455.781036,393.794617 457.721558,391.219971 
	C474.255676,369.283020 495.885529,358.001404 523.746033,359.924011 
	C524.052795,359.945190 524.343933,360.191254 525.472534,360.724731 
	C522.204346,369.585663 515.257629,375.222839 507.975647,381.045258 
z"/>
<path fill="#000000" opacity="1.000000" stroke="none" 
	d="
M137.346497,326.974030 
	C136.911057,329.948181 138.713150,333.688171 135.935089,334.711121 
	C132.390366,336.016418 131.829926,331.706635 130.327942,329.601746 
	C122.893433,319.183014 113.555962,310.358307 105.855942,300.171387 
	C99.447075,291.692657 93.101860,283.170685 88.405190,273.565765 
	C87.709023,272.142059 87.263046,270.640076 88.411636,269.394043 
	C89.416298,268.304138 90.864563,268.744873 92.176102,269.050690 
	C118.388123,275.163147 138.174347,301.565094 137.346497,326.974030 
z"/>
<path fill="#000000" opacity="1.000000" stroke="none" 
	d="
M85.940376,359.666870 
	C109.321602,361.303711 127.912369,371.103333 142.168701,389.133453 
	C143.324097,390.594666 143.555786,392.166870 143.035538,393.813782 
	C142.427109,395.739929 140.625793,395.344727 139.226288,395.309448 
	C115.238449,394.705139 95.008087,386.215820 80.119461,366.794586 
	C78.898338,365.201691 76.686378,363.252747 78.106140,361.057861 
	C79.823349,358.403168 82.982643,360.110779 85.940376,359.666870 
z"/>
<path fill="#000000" opacity="1.000000" stroke="none" 
	d="
M504.721100,288.657440 
	C495.845612,303.214661 483.324158,314.371826 473.413666,327.630280 
	C471.827911,329.751709 470.490082,332.057007 468.987274,334.242676 
	C468.338470,335.186279 467.695160,336.277496 466.251373,336.007416 
	C464.676727,335.712860 464.727753,334.396576 464.721924,333.270477 
	C464.632233,315.925507 469.186737,300.189362 480.850342,286.927917 
	C487.958191,278.846375 496.749878,273.454895 507.019440,270.347015 
	C508.996063,269.748871 510.851501,269.300812 513.243164,270.759766 
	C511.966949,277.254578 508.030396,282.620392 504.721100,288.657440 
z"/>
<path fill="#000000" opacity="1.000000" stroke="none" 
	d="
M447.654175,243.853851 
	C447.655792,240.047714 447.583923,236.719528 447.694122,233.397354 
	C447.745605,231.845764 447.078857,229.827011 449.126099,229.037811 
	C451.137085,228.262589 453.112488,228.690887 454.592590,230.347916 
	C460.986053,237.505493 465.941986,245.475662 467.269958,255.158264 
	C468.259094,262.370148 468.261627,269.635773 466.029633,276.686249 
	C465.622742,277.971619 465.598846,279.904419 463.637695,280.101685 
	C461.722290,280.294373 460.669830,278.875702 459.688629,277.512726 
	C452.545563,267.590576 448.462341,256.555817 447.654175,243.853851 
z"/>
<path fill="#000000" opacity="1.000000" stroke="none" 
	d="
M144.042816,275.061035 
	C142.209167,276.863739 141.335281,279.897247 138.496292,279.067902 
	C135.581726,278.216492 136.023163,275.222748 135.552505,272.845886 
	C132.640839,258.141479 135.921524,244.912460 144.936646,233.045837 
	C146.033844,231.601547 147.360931,230.317535 148.675049,229.056778 
	C149.803116,227.974457 151.164917,227.311493 152.738693,228.110596 
	C154.118362,228.811142 154.235840,230.156509 154.317612,231.528412 
	C155.236038,246.933624 153.299057,261.668182 144.042816,275.061035 
z"/>
<path fill="#000000" opacity="1.000000" stroke="none" 
	d="
M404.990356,459.012634 
	C402.944733,460.989014 401.327362,462.966156 399.310181,464.367920 
	C397.161987,465.860687 394.348145,466.214935 392.519226,464.084137 
	C390.887024,462.182495 391.126770,459.429260 393.161713,457.798615 
	C400.694550,451.762146 406.183563,443.709869 413.489624,437.490265 
	C415.534576,435.749390 418.429169,434.328003 420.544678,437.016693 
	C422.364380,439.329407 421.676788,442.630981 419.428833,444.204346 
	C413.732025,448.191467 410.431671,454.374023 404.990356,459.012634 
z"/>
<path fill="#000000" opacity="1.000000" stroke="none" 
	d="
M186.149689,436.261993 
	C194.864685,442.809509 201.697327,450.749756 208.892471,458.302032 
	C210.636414,460.132538 210.922653,462.871033 208.743286,464.531647 
	C206.852615,465.972260 204.174744,465.987396 202.299301,464.166656 
	C195.626114,457.688324 189.016312,451.140503 182.542679,444.463684 
	C180.755798,442.620667 180.081909,440.029297 181.102509,437.502808 
	C181.978851,435.333435 183.938980,435.595612 186.149689,436.261993 
z"/>
</svg>